#define float_width 18
#define float_height 18
static unsigned char float_bits[] = {
 0x00, 0x00, 0x00, 0x00, 0x00, 0x00, 0x00, 0x00, 0x00, 0x00, 0x00, 0x00,
 0xFE, 0xFF, 0x01, 0x02, 0x00, 0x01, 0x02, 0x00, 0x01, 0x02, 0x00, 0x01,
 0x02, 0x00, 0x01, 0x02, 0xF0, 0x01, 0x02, 0x10, 0x01, 0x02, 0x10, 0x01,
 0x02, 0x10, 0x01, 0xFE, 0xFF, 0x01, 0x00, 0x00, 0x00, 0x00, 0x00, 0x00,
 0x00, 0x00, 0x00, 0x00, 0x00, 0x00 };
