#define float_width 18
#define float_height 18
static unsigned char float_bits[] = {
 0x00, 0x00, 0x00, 0x00, 0x00, 0x00, 0x00, 0x00, 0x00, 0x00, 0x00, 0x00,
 0xFC, 0xFF, 0x00, 0x04, 0x80, 0x00, 0x04, 0x80, 0x00, 0x04, 0x80, 0x00,
 0x04, 0xFC, 0x00, 0x04, 0x84, 0x00, 0x04, 0x84, 0x00, 0x04, 0x84, 0x00,
 0x04, 0x84, 0x00, 0xFC, 0xFF, 0x00, 0x00, 0x00, 0x00, 0x00, 0x00, 0x00,
 0x00, 0x00, 0x00, 0x00, 0x00, 0x00 };
