#define invader_width 11
#define invader_height 10
static unsigned char invader_bits[] = {
 0xFF, 0x07, 0x77, 0x07, 0xAF, 0x07, 0x07, 0x07, 0x53, 0x06, 0x03, 0x06,
 0x05, 0x05, 0x75, 0x05, 0xAF, 0x07, 0xFF, 0x07 };
