#define invader1_width 11
#define invader1_height 10
static unsigned char invader1_bits[] = {
 0x00, 0x00, 0x88, 0x00, 0x50, 0x00, 0xF8, 0x00, 0xAC, 0x01, 0xFC, 0x01,
 0xFA, 0x02, 0x8A, 0x02, 0x50, 0x00, 0x00, 0x00 };
