#define invader2_width 10
#define invader2_height 10
static unsigned char invader2_bits[] = {
 0x00, 0x00, 0x30, 0x00, 0x78, 0x00, 0xFC, 0x00, 0xB6, 0x01, 0xFE, 0x01,
 0x48, 0x00, 0xB4, 0x00, 0x4A, 0x01, 0x00, 0x00 };
