#define threecol_width 18
#define threecol_height 18
static unsigned char threecol_bits[] = {
 0x00, 0x00, 0x00, 0x00, 0x00, 0x00, 0x00, 0x00, 0x00, 0x00, 0x00, 0x00,
 0xFE, 0xFF, 0x01, 0x42, 0x08, 0x01, 0x42, 0x08, 0x01, 0x42, 0x08, 0x01,
 0x42, 0x08, 0x01, 0x42, 0x08, 0x01, 0x42, 0x08, 0x01, 0x42, 0x08, 0x01,
 0x42, 0x08, 0x01, 0xFE, 0xFF, 0x01, 0x00, 0x00, 0x00, 0x00, 0x00, 0x00,
 0x00, 0x00, 0x00, 0x00, 0x00, 0x00 };
