#define tiletop_width 18
#define tiletop_height 18
static unsigned char tiletop_bits[] = {
 0x00, 0x00, 0x00, 0x00, 0x00, 0x00, 0x00, 0x00, 0x00, 0x00, 0x00, 0x00,
 0xFE, 0xFF, 0x01, 0x42, 0x08, 0x01, 0x42, 0x08, 0x01, 0xFE, 0xFF, 0x01,
 0x02, 0x00, 0x01, 0x02, 0x00, 0x01, 0x02, 0x00, 0x01, 0x02, 0x00, 0x01,
 0x02, 0x00, 0x01, 0xFE, 0xFF, 0x01, 0x00, 0x00, 0x00, 0x00, 0x00, 0x00,
 0x00, 0x00, 0x00, 0x00, 0x00, 0x00 };
