#define tileright_width 18
#define tileright_height 18
static unsigned char tileright_bits[] = {
 0x00, 0x00, 0x00, 0x00, 0x00, 0x00, 0x00, 0x00, 0x00, 0x00, 0x00, 0x00,
 0xFE, 0xFF, 0x01, 0x02, 0x08, 0x01, 0x02, 0x08, 0x01, 0x02, 0xF8, 0x01,
 0x02, 0x08, 0x01, 0x02, 0x08, 0x01, 0x02, 0xF8, 0x01, 0x02, 0x08, 0x01,
 0x02, 0x08, 0x01, 0xFE, 0xFF, 0x01, 0x00, 0x00, 0x00, 0x00, 0x00, 0x00,
 0x00, 0x00, 0x00, 0x00, 0x00, 0x00 };
