#define tileleft_width 18
#define tileleft_height 18
static unsigned char tileleft_bits[] = {
 0x00, 0x00, 0x00, 0x00, 0x00, 0x00, 0x00, 0x00, 0x00, 0x00, 0x00, 0x00,
 0xFE, 0xFF, 0x01, 0x42, 0x00, 0x01, 0x42, 0x00, 0x01, 0x7E, 0x00, 0x01,
 0x42, 0x00, 0x01, 0x42, 0x00, 0x01, 0x7E, 0x00, 0x01, 0x42, 0x00, 0x01,
 0x42, 0x00, 0x01, 0xFE, 0xFF, 0x01, 0x00, 0x00, 0x00, 0x00, 0x00, 0x00,
 0x00, 0x00, 0x00, 0x00, 0x00, 0x00 };
