#define tile_width 18
#define tile_height 18
static unsigned char tile_bits[] = {
 0x00, 0x00, 0x00, 0x00, 0x00, 0x00, 0x00, 0x00, 0x00, 0x00, 0x00, 0x00,
 0xFC, 0xFF, 0x00, 0x04, 0x88, 0x00, 0x04, 0x88, 0x00, 0x04, 0xF8, 0x00,
 0x04, 0x88, 0x00, 0x04, 0x88, 0x00, 0x04, 0xF8, 0x00, 0x04, 0x88, 0x00,
 0x04, 0x88, 0x00, 0xFC, 0xFF, 0x00, 0x00, 0x00, 0x00, 0x00, 0x00, 0x00,
 0x00, 0x00, 0x00, 0x00, 0x00, 0x00 };
