#define unknown_width 18
#define unknown_height 18
static unsigned char unknown_bits[] = {
 0x00, 0x00, 0x00, 0x00, 0x00, 0x00, 0x00, 0x00, 0x00, 0x00, 0x00, 0x00,
 0xFC, 0xFF, 0x00, 0x04, 0x80, 0x00, 0x84, 0x83, 0x00, 0x04, 0x84, 0x00,
 0x04, 0x82, 0x00, 0x04, 0x81, 0x00, 0x04, 0x80, 0x00, 0x04, 0x81, 0x00,
 0x04, 0x80, 0x00, 0xFC, 0xFF, 0x00, 0x00, 0x00, 0x00, 0x00, 0x00, 0x00,
 0x00, 0x00, 0x00, 0x00, 0x00, 0x00 };
