#define unknown_width 18
#define unknown_height 18
static unsigned char unknown_bits[] = {
 0x00, 0x00, 0x00, 0x00, 0x00, 0x00, 0x00, 0x00, 0x00, 0x00, 0x00, 0x00,
 0xFE, 0xFF, 0x01, 0x02, 0x00, 0x01, 0x82, 0x03, 0x01, 0x02, 0x04, 0x01,
 0x02, 0x02, 0x01, 0x02, 0x01, 0x01, 0x02, 0x00, 0x01, 0x02, 0x01, 0x01,
 0x02, 0x00, 0x01, 0xFE, 0xFF, 0x01, 0x00, 0x00, 0x00, 0x00, 0x00, 0x00,
 0x00, 0x00, 0x00, 0x00, 0x00, 0x00 };
